/* XPM */
static char *_696430856858[] = {
/* columns rows colors chars-per-pixel */
"32 32 157 2 ",
"   c #49393B",
".  c #003559",
"X  c #0A3758",
"o  c #013C5E",
"O  c #153B5A",
"+  c #1B3E5D",
"@  c #243E5B",
"#  c #003B6F",
"$  c #003870",
"%  c #332F6A",
"&  c #393D6C",
"*  c #483D42",
"=  c #603A66",
"-  c #004E5F",
";  c #24415F",
":  c #3F4450",
">  c #004F61",
",  c #00436E",
"<  c #0E466D",
"1  c #19486D",
"2  c #07576E",
"3  c #1D576F",
"4  c #005971",
"5  c #2A4C6C",
"6  c #394A62",
"7  c #3D466C",
"8  c #334E6C",
"9  c #29536E",
"0  c #34556D",
"q  c #3C536B",
"w  c #3C5C6B",
"e  c #335770",
"r  c #3B5A72",
"t  c #2C6F6A",
"y  c #47434D",
"u  c #474653",
"i  c #464B5C",
"p  c #4B4B5C",
"a  c #734A5D",
"s  c #454E63",
"d  c #4C4569",
"f  c #424C6B",
"g  c #534E68",
"h  c #445166",
"j  c #44546A",
"k  c #49556A",
"l  c #46586A",
"z  c #4D5A6E",
"x  c #525B6C",
"c  c #5B5969",
"v  c #435B73",
"b  c #4B5C72",
"n  c #425E79",
"m  c #505C70",
"M  c #7D4D61",
"N  c #625569",
"B  c #5B606C",
"V  c #557267",
"C  c #456177",
"Z  c #476278",
"A  c #4A6479",
"S  c #6C6665",
"D  c #6B6A6F",
"F  c #726964",
"G  c #7B6B62",
"H  c #FE0200",
"J  c #F3181F",
"K  c #EE1D26",
"L  c #F11922",
"P  c #BF3441",
"I  c #D23341",
"U  c #874B5F",
"Y  c #96495C",
"T  c #A94457",
"R  c #B64254",
"E  c #846E5F",
"W  c #8B775E",
"Q  c #957D5C",
"!  c #9B7D59",
"~  c #A17A57",
"^  c #837261",
"/  c #75985E",
"(  c #76A65D",
")  c #78A95D",
"_  c #618464",
"`  c #6C9561",
"'  c #F8BF14",
"]  c #F5BC1D",
"[  c #D9A93D",
"{  c #EFB927",
"}  c #F0BA22",
"|  c #E1AE36",
" . c #E4B232",
".. c #FEC302",
"X. c #FBC109",
"o. c #9C825A",
"O. c #BA914D",
"+. c #A78A56",
"@. c #AC8953",
"#. c #C79D47",
"$. c #CEA144",
"%. c #D0A343",
"&. c #8FCB52",
"*. c #91CD50",
"=. c #92D150",
"-. c #006887",
";. c #2F6889",
":. c #3F6584",
">. c #3E6A8B",
",. c #3B7399",
"<. c #3A7AA4",
"1. c #42769E",
"2. c #647484",
"3. c #6E7C8C",
"4. c #427BA5",
"5. c #2F8EBF",
"6. c #3386B5",
"7. c #308BBC",
"8. c #72818F",
"9. c #798592",
"0. c #7D8894",
"q. c #2A95CB",
"w. c #259CD4",
"e. c #229FD8",
"r. c #22A0D9",
"t. c #0FADED",
"y. c #16AAE7",
"u. c #13ACEA",
"i. c #04B1F1",
"p. c #2DA5E1",
"a. c #23B2F4",
"s. c #858791",
"d. c #8B8D96",
"f. c #848C98",
"g. c #8E9098",
"h. c #94949C",
"j. c #AAA5A9",
"k. c #AFA8AC",
"l. c #B4AAAC",
"z. c #B9ADAF",
"x. c #E1C6BF",
"c. c #DBC6C1",
"v. c #DFC9C4",
"b. c #E3CAC4",
"n. c #E7CDC5",
"m. c #EED3CB",
"M. c #F1D7CF",
"N. c #F4D8CF",
"B. c #F6DAD0",
"V. c #F8DBD1",
"C. c #FDE4DB",
"Z. c #FFEEE7",
"A. c #FFEFE9",
"S. c #FFF2EE",
"D. c #FFF6F3",
"F. c #FFF8F6",
"G. c #FFFFFF",
/* pixels */
"G.G.G.G.G.G.G.G.G.G.D.Z.C.m.b.x.x.x.M.C.Z.D.G.G.G.G.G.G.G.G.G.G.",
"G.G.G.G.G.G.G.G.S.C.v.l.d.A v 0 0 C A s.l.b.C.S.G.G.G.G.G.G.G.G.",
"G.G.G.G.G.G.F.C.c.d.e o ; 6 j k k k h ; o e g.c.C.F.G.G.G.G.G.G.",
"G.G.G.G.G.S.N.j.9 + k z x k j j h j l z z j + 9 j.M.S.G.G.G.G.G.",
"G.G.G.G.S.m.9.. k z h j j j j j j j j j j j z j . 9.m.S.G.G.G.G.",
"G.G.G.S.m.3.O x j j j j j j j j j j j j j j j j x O 3.m.S.G.G.G.",
"G.G.F.B.0.O z j j j j j j j j j j j j j j j j j j b O 0.N.F.G.G.",
"G.G.C.j.. b j j j j j j j j j j j j j j j h j j j j x . j.C.G.G.",
"G.A.c.9 k j j j j j j j f j j j j j j j j j j k j j j j 9 v.S.G.",
"G.C.h.+ b j v j v j j j k k j j l l l j l j k k k k l B + h.C.G.",
"F.b.r j i u u u y s j j e 4 j 7 & 7 7 & 7 f 5 1 8 , , , h w b.D.",
"Z.l.o b <.6.6.6.6.>.s e M T k V ` ` ` ` ` w ^ ! G @.@.+.x # l.Z.",
"C.d.@ n t.e.q.q.w.i.4.> R H g &.&.&.*.&.*.t [ | @.X.X.{ D o d.C.",
"m.2.: v y.1.* i   7.p.- T J k q j d = q k # | $., c x c l 6 2.N.",
"b.C s v y.:.* i * 5.p.- T L k j 7 _ / j j 0 { O.$ , , , h h n n.",
"b.r h v y.w.q.q.q.u.1.> T K j l & ) =.j 0 B X.~ !  .[ [ B h r x.",
"b.r s v u.q.6.r.t.1.u 4 T K q l & ( &.g f E ' E ~ | [ %.c q r x.",
"b.A s v u.>.  y q.e.p 3 Y I q l & ( =.N d ~ ' F , # # # h h Z b.",
"M.2.6 v y.,.h j r i.6.y c U h l & ( &.l , +.] j k F S S k 6 2.M.",
"V.d.@ b u.,.i v : <.a.-.P H N r & ) *.x # #.} % O...' ' D o d.C.",
"A.z.# z ,.n j j v h <.;.a Y j j 7 V _ j 0 ^ W 8 F o.Q o.x o z.Z.",
"F.n.r h i j j j h j i s q 2 j j l f 7 j h 5 5 j 0 < 1 1 j v b.D.",
"G.C.h.O b j j j j j j j j k j j h j l j j k l j j k k x O h.C.G.",
"G.S.v.e j j j j j j j j j j j j j j j j j j j j j j j j 0 v.D.G.",
"G.G.C.k.. m j j j j j j j j j j j j j j j j j l j h x . k.C.G.G.",
"G.G.F.V.f.X b h j j j j j j j j j j j j j j j h j b X f.B.F.G.G.",
"G.G.G.S.m.8.X m j j j j j j j j j j j j j j l j x X 8.m.S.G.G.G.",
"G.G.G.G.S.M.f.. k z j k f j j j j j j j j j z h . f.M.S.G.G.G.G.",
"G.G.G.G.G.S.V.l.e O j k z l j j j j j z x h O e k.V.S.G.G.G.G.G.",
"G.G.G.G.G.G.F.C.v.h.r > ; 6 h k h h 6 ; # r h.v.C.F.G.G.G.G.G.G.",
"G.G.G.G.G.G.G.G.S.C.n.z.d.2.A r r A 2.d.z.n.C.D.G.G.G.G.G.G.G.G.",
"G.G.G.G.G.G.G.G.G.G.D.S.C.M.n.x.x.n.M.C.Z.F.G.G.G.G.G.G.G.G.G.G."
};
